<svg width="22" height="22" viewBox="0 0 22 22" fill="none" xmlns="http://www.w3.org/2000/svg">
<path fill-rule="evenodd" clip-rule="evenodd" d="M13.3009 12.8947L13.2065 12.8296C13.0149 12.6957 12.75 12.7132 12.5914 12.8708L12.3787 13.0853C12.1569 13.3108 11.8076 13.3539 11.5354 13.1907C10.4794 12.5546 9.9523 11.9404 9.29321 10.9605C9.11263 10.691 9.14471 10.3307 9.37113 10.0979L9.58472 9.8779C9.75247 9.70648 9.77263 9.45073 9.63605 9.25182C9.4903 9.04829 9.34822 8.84387 9.21255 8.64862C9.13372 8.53679 9.00447 8.46346 8.86238 8.45154C8.85047 8.45062 8.83672 8.44971 8.82113 8.44971C8.73497 8.44971 8.60296 8.47354 8.4893 8.58812L8.37471 8.70362L8.37197 8.70637C7.39847 9.68265 8.44988 11.4298 9.75888 12.7397C11.0514 14.0277 12.782 15.0617 13.7555 14.0863L13.8903 13.9598C14.0085 13.8397 14.0168 13.6793 14.0095 13.5968C14.0021 13.5134 13.9664 13.3585 13.8096 13.2494C13.641 13.1284 13.475 13.0147 13.3009 12.8947Z" fill="#43B53F"/>
<path fill-rule="evenodd" clip-rule="evenodd" d="M14.8458 14.9486L14.7101 15.0769C14.1785 15.6059 13.5359 15.8671 12.82 15.8671C11.621 15.8671 10.2166 15.1374 8.78755 13.7129C6.51789 11.4433 5.9853 9.1534 7.39605 7.73715L7.51247 7.61981C7.90205 7.22931 8.44472 7.03131 8.98005 7.08173C9.52821 7.1294 10.0232 7.41357 10.3395 7.86273C10.4733 8.05615 10.6126 8.25507 10.7611 8.46223C11.2231 9.1314 11.202 10.0032 10.7419 10.6348C11.071 11.083 11.3771 11.4139 11.8135 11.7302C12.4478 11.2563 13.3232 11.2361 13.9896 11.6999L14.0804 11.7614C14.2628 11.8879 14.437 12.007 14.6038 12.128C15.0447 12.4342 15.3298 12.9274 15.3793 13.4737C15.4288 14.0219 15.2335 14.559 14.8458 14.9486ZM19.5538 9.80518C18.9011 6.33373 16.1291 3.56265 12.6577 2.91181C10.0791 2.4269 7.45655 3.1034 5.45639 4.76257C3.44522 6.4309 2.29297 8.87382 2.29297 11.4662C2.29297 12.7697 2.58997 14.0649 3.1748 15.3125C3.22247 15.4207 3.23714 15.5298 3.21514 15.6306C3.07214 16.2805 2.77239 17.5886 2.55605 18.5236C2.4653 18.9187 2.58447 19.322 2.8723 19.6016C3.15739 19.8784 3.56072 19.9875 3.94572 19.8858C4.81747 19.6658 6.01189 19.3734 6.76172 19.1983C6.8598 19.1754 6.96797 19.1891 7.08072 19.245C8.2898 19.8537 9.64554 20.1745 11.0013 20.1745C13.5918 20.1745 16.0338 19.0223 17.7003 17.0139C19.3622 15.0128 20.0369 12.3847 19.5538 9.80518Z" fill="#43B53F"/>
</svg>
